<svg xmlns="http://www.w3.org/2000/svg" xmlns:xlink="http://www.w3.org/1999/xlink" width="500" zoomAndPan="magnify" viewBox="0 0 375 374.999991" height="500" preserveAspectRatio="xMidYMid meet" version="1.0"><defs><clipPath id="045d44bd80"><path d="M 43.746094 24.328125 L 175 24.328125 L 175 175 L 43.746094 175 Z M 43.746094 24.328125 " clip-rule="nonzero"/></clipPath><clipPath id="44bde4be61"><path d="M 43.746094 200 L 175 200 L 175 350.578125 L 43.746094 350.578125 Z M 43.746094 200 " clip-rule="nonzero"/></clipPath><clipPath id="7707b8ba58"><path d="M 199 200 L 330.996094 200 L 330.996094 350.578125 L 199 350.578125 Z M 199 200 " clip-rule="nonzero"/></clipPath><clipPath id="93476f07f2"><path d="M 199 24.328125 L 330.996094 24.328125 L 330.996094 55 L 199 55 Z M 199 24.328125 " clip-rule="nonzero"/></clipPath><clipPath id="140d77eee0"><path d="M 199 54 L 330.996094 54 L 330.996094 175 L 199 175 Z M 199 54 " clip-rule="nonzero"/></clipPath></defs><rect x="-37.5" width="450" fill="#ffffff" y="-37.499999" height="449.999989" fill-opacity="1"/><rect x="-37.5" width="450" fill="#ffffff" y="-37.499999" height="449.999989" fill-opacity="1"/><rect x="-37.5" width="450" fill="#faf6ed" y="-37.499999" height="449.999989" fill-opacity="1"/><g clip-path="url(#045d44bd80)"><path fill="#0682a6" d="M 174.804688 24.375 L 174.804688 54.519531 L 73.875 54.519531 L 73.875 174.882812 L 43.746094 174.882812 L 43.746094 24.375 Z M 174.804688 24.375 " fill-opacity="1" fill-rule="nonzero"/></g><g clip-path="url(#44bde4be61)"><path fill="#0682a6" d="M 174.804688 290.242188 L 174.804688 350.535156 L 43.746094 350.535156 L 43.746094 200.027344 L 73.875 200.027344 L 73.875 290.242188 Z M 174.804688 290.242188 " fill-opacity="1" fill-rule="nonzero"/></g><g clip-path="url(#7707b8ba58)"><path fill="#fc666f" d="M 330.996094 200.027344 L 330.996094 350.535156 L 199.933594 350.535156 L 199.933594 320.386719 L 300.867188 320.386719 L 300.867188 200.027344 Z M 330.996094 200.027344 " fill-opacity="1" fill-rule="nonzero"/></g><g clip-path="url(#93476f07f2)"><path fill="#fc666f" d="M 199.933594 24.375 L 330.996094 24.375 L 330.996094 54.519531 L 199.933594 54.519531 Z M 199.933594 24.375 " fill-opacity="1" fill-rule="nonzero"/></g><path fill="#545454" d="M 300.867188 200.027344 L 300.867188 320.386719 L 199.933594 320.386719 L 199.933594 290.242188 L 270.738281 290.242188 L 270.738281 200.027344 Z M 300.867188 200.027344 " fill-opacity="1" fill-rule="nonzero"/><path fill="#545454" d="M 300.867188 84.667969 L 300.867188 174.882812 L 270.738281 174.882812 L 270.738281 114.8125 L 134.136719 114.8125 L 134.136719 174.882812 L 104.003906 174.882812 L 104.003906 84.667969 Z M 300.867188 84.667969 " fill-opacity="1" fill-rule="nonzero"/><path fill="#fc666f" d="M 240.609375 229.945312 L 240.609375 260.09375 L 104.003906 260.09375 L 104.003906 200.027344 L 134.136719 200.027344 L 134.136719 229.945312 Z M 240.609375 229.945312 " fill-opacity="1" fill-rule="nonzero"/><path fill="#f79963" d="M 134.136719 200.027344 L 240.609375 200.027344 L 240.609375 229.945312 L 134.136719 229.945312 Z M 134.136719 200.027344 " fill-opacity="1" fill-rule="nonzero"/><path fill="#f79963" d="M 134.136719 144.960938 L 174.804688 144.960938 L 174.804688 174.882812 L 134.136719 174.882812 Z M 134.136719 144.960938 " fill-opacity="1" fill-rule="nonzero"/><path fill="#0682a6" d="M 199.933594 144.960938 L 240.609375 144.960938 L 240.609375 174.882812 L 199.933594 174.882812 Z M 199.933594 144.960938 " fill-opacity="1" fill-rule="nonzero"/><g clip-path="url(#140d77eee0)"><path fill="#f79963" d="M 330.996094 54.519531 L 330.996094 174.882812 L 300.867188 174.882812 L 300.867188 84.667969 L 199.933594 84.667969 L 199.933594 54.519531 Z M 330.996094 54.519531 " fill-opacity="1" fill-rule="nonzero"/></g><path fill="#fc666f" d="M 270.738281 114.8125 L 270.738281 174.882812 L 240.609375 174.882812 L 240.609375 144.960938 L 134.136719 144.960938 L 134.136719 114.8125 Z M 270.738281 114.8125 " fill-opacity="1" fill-rule="nonzero"/></svg>